<mxfile host="app.diagrams.net" agent="Mozilla/5.0 (Macintosh; Intel Mac OS X 10_15_7) AppleWebKit/537.36 (KHTML, like Gecko) Chrome/128.0.0.0 Safari/537.36" version="24.7.10">
  <diagram name="Page-1" id="bMJjPHVlP2ev3w0HFPS1">
    <mxGraphModel dx="1586" dy="1079" grid="1" gridSize="10" guides="1" tooltips="1" connect="1" arrows="1" fold="1" page="1" pageScale="1" pageWidth="850" pageHeight="1100" math="0" shadow="0">
      <root>
        <mxCell id="0" />
        <mxCell id="1" parent="0" />
        <mxCell id="syzuLp7VhouP9JSP-tTG-1" value="" style="rounded=0;whiteSpace=wrap;html=1;" vertex="1" parent="1">
          <mxGeometry x="10" y="120" width="1010" height="490" as="geometry" />
        </mxCell>
        <mxCell id="syzuLp7VhouP9JSP-tTG-2" value="" style="rounded=0;whiteSpace=wrap;html=1;fillColor=#2e7956;" vertex="1" parent="1">
          <mxGeometry x="20" y="150" width="990" height="240" as="geometry" />
        </mxCell>
        <mxCell id="syzuLp7VhouP9JSP-tTG-3" value="" style="rounded=0;whiteSpace=wrap;html=1;fillColor=#e5dc7b;" vertex="1" parent="1">
          <mxGeometry x="50" y="370" width="10" height="20" as="geometry" />
        </mxCell>
        <mxCell id="syzuLp7VhouP9JSP-tTG-4" value="" style="rounded=0;whiteSpace=wrap;html=1;fillColor=#e5dc7b;" vertex="1" parent="1">
          <mxGeometry x="60" y="370" width="10" height="20" as="geometry" />
        </mxCell>
        <mxCell id="syzuLp7VhouP9JSP-tTG-5" value="" style="rounded=0;whiteSpace=wrap;html=1;fillColor=#e5dc7b;" vertex="1" parent="1">
          <mxGeometry x="70" y="370" width="10" height="20" as="geometry" />
        </mxCell>
        <mxCell id="syzuLp7VhouP9JSP-tTG-6" value="" style="rounded=0;whiteSpace=wrap;html=1;fillColor=#e5dc7b;" vertex="1" parent="1">
          <mxGeometry x="80" y="370" width="10" height="20" as="geometry" />
        </mxCell>
        <mxCell id="syzuLp7VhouP9JSP-tTG-7" value="" style="rounded=0;whiteSpace=wrap;html=1;fillColor=#e5dc7b;" vertex="1" parent="1">
          <mxGeometry x="90" y="370" width="10" height="20" as="geometry" />
        </mxCell>
        <mxCell id="syzuLp7VhouP9JSP-tTG-8" value="" style="rounded=0;whiteSpace=wrap;html=1;fillColor=#e5dc7b;" vertex="1" parent="1">
          <mxGeometry x="100" y="370" width="10" height="20" as="geometry" />
        </mxCell>
        <mxCell id="syzuLp7VhouP9JSP-tTG-9" value="" style="rounded=0;whiteSpace=wrap;html=1;fillColor=#e5dc7b;" vertex="1" parent="1">
          <mxGeometry x="110" y="370" width="10" height="20" as="geometry" />
        </mxCell>
        <mxCell id="syzuLp7VhouP9JSP-tTG-10" value="" style="rounded=0;whiteSpace=wrap;html=1;fillColor=#e5dc7b;" vertex="1" parent="1">
          <mxGeometry x="120" y="370" width="10" height="20" as="geometry" />
        </mxCell>
        <mxCell id="syzuLp7VhouP9JSP-tTG-11" value="" style="rounded=0;whiteSpace=wrap;html=1;fillColor=#e5dc7b;" vertex="1" parent="1">
          <mxGeometry x="130" y="370" width="10" height="20" as="geometry" />
        </mxCell>
        <mxCell id="syzuLp7VhouP9JSP-tTG-12" value="" style="rounded=0;whiteSpace=wrap;html=1;fillColor=#e5dc7b;" vertex="1" parent="1">
          <mxGeometry x="140" y="370" width="10" height="20" as="geometry" />
        </mxCell>
        <mxCell id="syzuLp7VhouP9JSP-tTG-13" value="" style="rounded=0;whiteSpace=wrap;html=1;fillColor=#e5dc7b;" vertex="1" parent="1">
          <mxGeometry x="150" y="370" width="10" height="20" as="geometry" />
        </mxCell>
        <mxCell id="syzuLp7VhouP9JSP-tTG-14" value="" style="rounded=0;whiteSpace=wrap;html=1;fillColor=#e5dc7b;" vertex="1" parent="1">
          <mxGeometry x="160" y="370" width="10" height="20" as="geometry" />
        </mxCell>
        <mxCell id="syzuLp7VhouP9JSP-tTG-15" value="" style="rounded=0;whiteSpace=wrap;html=1;fillColor=#e5dc7b;" vertex="1" parent="1">
          <mxGeometry x="170" y="370" width="10" height="20" as="geometry" />
        </mxCell>
        <mxCell id="syzuLp7VhouP9JSP-tTG-16" value="" style="rounded=0;whiteSpace=wrap;html=1;fillColor=#e5dc7b;" vertex="1" parent="1">
          <mxGeometry x="180" y="370" width="10" height="20" as="geometry" />
        </mxCell>
        <mxCell id="syzuLp7VhouP9JSP-tTG-17" value="" style="rounded=0;whiteSpace=wrap;html=1;fillColor=#e5dc7b;" vertex="1" parent="1">
          <mxGeometry x="190" y="370" width="10" height="20" as="geometry" />
        </mxCell>
        <mxCell id="syzuLp7VhouP9JSP-tTG-18" value="" style="rounded=0;whiteSpace=wrap;html=1;fillColor=#e5dc7b;" vertex="1" parent="1">
          <mxGeometry x="200" y="370" width="10" height="20" as="geometry" />
        </mxCell>
        <mxCell id="syzuLp7VhouP9JSP-tTG-19" value="" style="rounded=0;whiteSpace=wrap;html=1;fillColor=#e5dc7b;" vertex="1" parent="1">
          <mxGeometry x="210" y="370" width="10" height="20" as="geometry" />
        </mxCell>
        <mxCell id="syzuLp7VhouP9JSP-tTG-20" value="" style="rounded=0;whiteSpace=wrap;html=1;fillColor=#e5dc7b;" vertex="1" parent="1">
          <mxGeometry x="220" y="370" width="10" height="20" as="geometry" />
        </mxCell>
        <mxCell id="syzuLp7VhouP9JSP-tTG-21" value="" style="rounded=0;whiteSpace=wrap;html=1;fillColor=#e5dc7b;" vertex="1" parent="1">
          <mxGeometry x="230" y="370" width="10" height="20" as="geometry" />
        </mxCell>
        <mxCell id="syzuLp7VhouP9JSP-tTG-22" value="" style="rounded=0;whiteSpace=wrap;html=1;fillColor=#e5dc7b;" vertex="1" parent="1">
          <mxGeometry x="240" y="370" width="10" height="20" as="geometry" />
        </mxCell>
        <mxCell id="syzuLp7VhouP9JSP-tTG-23" value="" style="rounded=0;whiteSpace=wrap;html=1;fillColor=#e5dc7b;" vertex="1" parent="1">
          <mxGeometry x="250" y="370" width="10" height="20" as="geometry" />
        </mxCell>
        <mxCell id="syzuLp7VhouP9JSP-tTG-24" value="" style="rounded=0;whiteSpace=wrap;html=1;fillColor=#e5dc7b;" vertex="1" parent="1">
          <mxGeometry x="260" y="370" width="10" height="20" as="geometry" />
        </mxCell>
        <mxCell id="syzuLp7VhouP9JSP-tTG-25" value="" style="rounded=0;whiteSpace=wrap;html=1;fillColor=#e5dc7b;" vertex="1" parent="1">
          <mxGeometry x="270" y="370" width="10" height="20" as="geometry" />
        </mxCell>
        <mxCell id="syzuLp7VhouP9JSP-tTG-26" value="" style="rounded=0;whiteSpace=wrap;html=1;fillColor=#e5dc7b;" vertex="1" parent="1">
          <mxGeometry x="280" y="370" width="10" height="20" as="geometry" />
        </mxCell>
        <mxCell id="syzuLp7VhouP9JSP-tTG-27" value="" style="rounded=0;whiteSpace=wrap;html=1;fillColor=#e5dc7b;" vertex="1" parent="1">
          <mxGeometry x="290" y="370" width="10" height="20" as="geometry" />
        </mxCell>
        <mxCell id="syzuLp7VhouP9JSP-tTG-28" value="" style="rounded=0;whiteSpace=wrap;html=1;fillColor=#e5dc7b;" vertex="1" parent="1">
          <mxGeometry x="300" y="370" width="10" height="20" as="geometry" />
        </mxCell>
        <mxCell id="syzuLp7VhouP9JSP-tTG-29" value="" style="rounded=0;whiteSpace=wrap;html=1;fillColor=#e5dc7b;" vertex="1" parent="1">
          <mxGeometry x="310" y="370" width="10" height="20" as="geometry" />
        </mxCell>
        <mxCell id="syzuLp7VhouP9JSP-tTG-30" value="" style="rounded=0;whiteSpace=wrap;html=1;fillColor=#e5dc7b;" vertex="1" parent="1">
          <mxGeometry x="320" y="370" width="10" height="20" as="geometry" />
        </mxCell>
        <mxCell id="syzuLp7VhouP9JSP-tTG-31" value="" style="rounded=0;whiteSpace=wrap;html=1;fillColor=#e5dc7b;" vertex="1" parent="1">
          <mxGeometry x="330" y="370" width="10" height="20" as="geometry" />
        </mxCell>
        <mxCell id="syzuLp7VhouP9JSP-tTG-32" value="" style="rounded=0;whiteSpace=wrap;html=1;fillColor=#e5dc7b;" vertex="1" parent="1">
          <mxGeometry x="340" y="370" width="10" height="20" as="geometry" />
        </mxCell>
        <mxCell id="syzuLp7VhouP9JSP-tTG-33" value="" style="rounded=0;whiteSpace=wrap;html=1;fillColor=#e5dc7b;" vertex="1" parent="1">
          <mxGeometry x="350" y="370" width="10" height="20" as="geometry" />
        </mxCell>
        <mxCell id="syzuLp7VhouP9JSP-tTG-34" value="" style="rounded=0;whiteSpace=wrap;html=1;fillColor=#e5dc7b;" vertex="1" parent="1">
          <mxGeometry x="360" y="370" width="10" height="20" as="geometry" />
        </mxCell>
        <mxCell id="syzuLp7VhouP9JSP-tTG-35" value="" style="rounded=0;whiteSpace=wrap;html=1;fillColor=#e5dc7b;" vertex="1" parent="1">
          <mxGeometry x="370" y="370" width="10" height="20" as="geometry" />
        </mxCell>
        <mxCell id="syzuLp7VhouP9JSP-tTG-36" value="" style="rounded=0;whiteSpace=wrap;html=1;fillColor=#e5dc7b;" vertex="1" parent="1">
          <mxGeometry x="380" y="370" width="10" height="20" as="geometry" />
        </mxCell>
        <mxCell id="syzuLp7VhouP9JSP-tTG-37" value="" style="rounded=0;whiteSpace=wrap;html=1;fillColor=#e5dc7b;" vertex="1" parent="1">
          <mxGeometry x="390" y="370" width="10" height="20" as="geometry" />
        </mxCell>
        <mxCell id="syzuLp7VhouP9JSP-tTG-38" value="" style="rounded=0;whiteSpace=wrap;html=1;fillColor=#e5dc7b;" vertex="1" parent="1">
          <mxGeometry x="400" y="370" width="10" height="20" as="geometry" />
        </mxCell>
        <mxCell id="syzuLp7VhouP9JSP-tTG-39" value="" style="rounded=0;whiteSpace=wrap;html=1;fillColor=#e5dc7b;" vertex="1" parent="1">
          <mxGeometry x="410" y="370" width="10" height="20" as="geometry" />
        </mxCell>
        <mxCell id="syzuLp7VhouP9JSP-tTG-40" value="" style="rounded=0;whiteSpace=wrap;html=1;fillColor=#e5dc7b;" vertex="1" parent="1">
          <mxGeometry x="420" y="370" width="10" height="20" as="geometry" />
        </mxCell>
        <mxCell id="syzuLp7VhouP9JSP-tTG-41" value="" style="rounded=0;whiteSpace=wrap;html=1;fillColor=#e5dc7b;" vertex="1" parent="1">
          <mxGeometry x="600" y="370" width="10" height="20" as="geometry" />
        </mxCell>
        <mxCell id="syzuLp7VhouP9JSP-tTG-42" value="" style="rounded=0;whiteSpace=wrap;html=1;fillColor=#e5dc7b;" vertex="1" parent="1">
          <mxGeometry x="610" y="370" width="10" height="20" as="geometry" />
        </mxCell>
        <mxCell id="syzuLp7VhouP9JSP-tTG-43" value="" style="rounded=0;whiteSpace=wrap;html=1;fillColor=#e5dc7b;" vertex="1" parent="1">
          <mxGeometry x="620" y="370" width="10" height="20" as="geometry" />
        </mxCell>
        <mxCell id="syzuLp7VhouP9JSP-tTG-44" value="" style="rounded=0;whiteSpace=wrap;html=1;fillColor=#e5dc7b;" vertex="1" parent="1">
          <mxGeometry x="630" y="370" width="10" height="20" as="geometry" />
        </mxCell>
        <mxCell id="syzuLp7VhouP9JSP-tTG-45" value="" style="rounded=0;whiteSpace=wrap;html=1;fillColor=#e5dc7b;" vertex="1" parent="1">
          <mxGeometry x="640" y="370" width="10" height="20" as="geometry" />
        </mxCell>
        <mxCell id="syzuLp7VhouP9JSP-tTG-46" value="" style="rounded=0;whiteSpace=wrap;html=1;fillColor=#e5dc7b;" vertex="1" parent="1">
          <mxGeometry x="650" y="370" width="10" height="20" as="geometry" />
        </mxCell>
        <mxCell id="syzuLp7VhouP9JSP-tTG-47" value="" style="rounded=0;whiteSpace=wrap;html=1;fillColor=#e5dc7b;" vertex="1" parent="1">
          <mxGeometry x="660" y="370" width="10" height="20" as="geometry" />
        </mxCell>
        <mxCell id="syzuLp7VhouP9JSP-tTG-48" value="" style="rounded=0;whiteSpace=wrap;html=1;fillColor=#e5dc7b;" vertex="1" parent="1">
          <mxGeometry x="670" y="370" width="10" height="20" as="geometry" />
        </mxCell>
        <mxCell id="syzuLp7VhouP9JSP-tTG-49" value="" style="rounded=0;whiteSpace=wrap;html=1;fillColor=#e5dc7b;" vertex="1" parent="1">
          <mxGeometry x="680" y="370" width="10" height="20" as="geometry" />
        </mxCell>
        <mxCell id="syzuLp7VhouP9JSP-tTG-50" value="" style="rounded=0;whiteSpace=wrap;html=1;fillColor=#e5dc7b;" vertex="1" parent="1">
          <mxGeometry x="690" y="370" width="10" height="20" as="geometry" />
        </mxCell>
        <mxCell id="syzuLp7VhouP9JSP-tTG-51" value="" style="rounded=0;whiteSpace=wrap;html=1;fillColor=#e5dc7b;" vertex="1" parent="1">
          <mxGeometry x="700" y="370" width="10" height="20" as="geometry" />
        </mxCell>
        <mxCell id="syzuLp7VhouP9JSP-tTG-52" value="" style="rounded=0;whiteSpace=wrap;html=1;fillColor=#e5dc7b;" vertex="1" parent="1">
          <mxGeometry x="710" y="370" width="10" height="20" as="geometry" />
        </mxCell>
        <mxCell id="syzuLp7VhouP9JSP-tTG-53" value="" style="rounded=0;whiteSpace=wrap;html=1;fillColor=#e5dc7b;" vertex="1" parent="1">
          <mxGeometry x="720" y="370" width="10" height="20" as="geometry" />
        </mxCell>
        <mxCell id="syzuLp7VhouP9JSP-tTG-54" value="" style="rounded=0;whiteSpace=wrap;html=1;fillColor=#e5dc7b;" vertex="1" parent="1">
          <mxGeometry x="730" y="370" width="10" height="20" as="geometry" />
        </mxCell>
        <mxCell id="syzuLp7VhouP9JSP-tTG-55" value="" style="rounded=0;whiteSpace=wrap;html=1;fillColor=#e5dc7b;" vertex="1" parent="1">
          <mxGeometry x="740" y="370" width="10" height="20" as="geometry" />
        </mxCell>
        <mxCell id="syzuLp7VhouP9JSP-tTG-56" value="" style="rounded=0;whiteSpace=wrap;html=1;fillColor=#e5dc7b;" vertex="1" parent="1">
          <mxGeometry x="750" y="370" width="10" height="20" as="geometry" />
        </mxCell>
        <mxCell id="syzuLp7VhouP9JSP-tTG-57" value="" style="rounded=0;whiteSpace=wrap;html=1;fillColor=#e5dc7b;" vertex="1" parent="1">
          <mxGeometry x="760" y="370" width="10" height="20" as="geometry" />
        </mxCell>
        <mxCell id="syzuLp7VhouP9JSP-tTG-58" value="" style="rounded=0;whiteSpace=wrap;html=1;fillColor=#e5dc7b;" vertex="1" parent="1">
          <mxGeometry x="770" y="370" width="10" height="20" as="geometry" />
        </mxCell>
        <mxCell id="syzuLp7VhouP9JSP-tTG-59" value="" style="rounded=0;whiteSpace=wrap;html=1;fillColor=#e5dc7b;" vertex="1" parent="1">
          <mxGeometry x="780" y="370" width="10" height="20" as="geometry" />
        </mxCell>
        <mxCell id="syzuLp7VhouP9JSP-tTG-60" value="" style="rounded=0;whiteSpace=wrap;html=1;fillColor=#e5dc7b;" vertex="1" parent="1">
          <mxGeometry x="790" y="370" width="10" height="20" as="geometry" />
        </mxCell>
        <mxCell id="syzuLp7VhouP9JSP-tTG-61" value="" style="rounded=0;whiteSpace=wrap;html=1;fillColor=#e5dc7b;" vertex="1" parent="1">
          <mxGeometry x="800" y="370" width="10" height="20" as="geometry" />
        </mxCell>
        <mxCell id="syzuLp7VhouP9JSP-tTG-62" value="" style="rounded=0;whiteSpace=wrap;html=1;fillColor=#e5dc7b;" vertex="1" parent="1">
          <mxGeometry x="810" y="370" width="10" height="20" as="geometry" />
        </mxCell>
        <mxCell id="syzuLp7VhouP9JSP-tTG-63" value="" style="rounded=0;whiteSpace=wrap;html=1;fillColor=#e5dc7b;" vertex="1" parent="1">
          <mxGeometry x="820" y="370" width="10" height="20" as="geometry" />
        </mxCell>
        <mxCell id="syzuLp7VhouP9JSP-tTG-64" value="" style="rounded=0;whiteSpace=wrap;html=1;fillColor=#e5dc7b;" vertex="1" parent="1">
          <mxGeometry x="830" y="370" width="10" height="20" as="geometry" />
        </mxCell>
        <mxCell id="syzuLp7VhouP9JSP-tTG-65" value="" style="rounded=0;whiteSpace=wrap;html=1;fillColor=#e5dc7b;" vertex="1" parent="1">
          <mxGeometry x="840" y="370" width="10" height="20" as="geometry" />
        </mxCell>
        <mxCell id="syzuLp7VhouP9JSP-tTG-66" value="" style="rounded=0;whiteSpace=wrap;html=1;fillColor=#e5dc7b;" vertex="1" parent="1">
          <mxGeometry x="850" y="370" width="10" height="20" as="geometry" />
        </mxCell>
        <mxCell id="syzuLp7VhouP9JSP-tTG-67" value="" style="rounded=0;whiteSpace=wrap;html=1;fillColor=#e5dc7b;" vertex="1" parent="1">
          <mxGeometry x="860" y="370" width="10" height="20" as="geometry" />
        </mxCell>
        <mxCell id="syzuLp7VhouP9JSP-tTG-68" value="" style="rounded=0;whiteSpace=wrap;html=1;fillColor=#e5dc7b;" vertex="1" parent="1">
          <mxGeometry x="870" y="370" width="10" height="20" as="geometry" />
        </mxCell>
        <mxCell id="syzuLp7VhouP9JSP-tTG-69" value="" style="rounded=0;whiteSpace=wrap;html=1;fillColor=#e5dc7b;" vertex="1" parent="1">
          <mxGeometry x="880" y="370" width="10" height="20" as="geometry" />
        </mxCell>
        <mxCell id="syzuLp7VhouP9JSP-tTG-70" value="" style="rounded=0;whiteSpace=wrap;html=1;fillColor=#e5dc7b;" vertex="1" parent="1">
          <mxGeometry x="890" y="370" width="10" height="20" as="geometry" />
        </mxCell>
        <mxCell id="syzuLp7VhouP9JSP-tTG-71" value="" style="rounded=0;whiteSpace=wrap;html=1;fillColor=#e5dc7b;" vertex="1" parent="1">
          <mxGeometry x="900" y="370" width="10" height="20" as="geometry" />
        </mxCell>
        <mxCell id="syzuLp7VhouP9JSP-tTG-72" value="" style="rounded=0;whiteSpace=wrap;html=1;fillColor=#e5dc7b;" vertex="1" parent="1">
          <mxGeometry x="910" y="370" width="10" height="20" as="geometry" />
        </mxCell>
        <mxCell id="syzuLp7VhouP9JSP-tTG-73" value="" style="rounded=0;whiteSpace=wrap;html=1;fillColor=#e5dc7b;" vertex="1" parent="1">
          <mxGeometry x="920" y="370" width="10" height="20" as="geometry" />
        </mxCell>
        <mxCell id="syzuLp7VhouP9JSP-tTG-74" value="" style="rounded=0;whiteSpace=wrap;html=1;fillColor=#e5dc7b;" vertex="1" parent="1">
          <mxGeometry x="930" y="370" width="10" height="20" as="geometry" />
        </mxCell>
        <mxCell id="syzuLp7VhouP9JSP-tTG-75" value="" style="rounded=0;whiteSpace=wrap;html=1;fillColor=#e5dc7b;" vertex="1" parent="1">
          <mxGeometry x="940" y="370" width="10" height="20" as="geometry" />
        </mxCell>
        <mxCell id="syzuLp7VhouP9JSP-tTG-76" value="" style="rounded=0;whiteSpace=wrap;html=1;fillColor=#e5dc7b;" vertex="1" parent="1">
          <mxGeometry x="950" y="370" width="10" height="20" as="geometry" />
        </mxCell>
        <mxCell id="syzuLp7VhouP9JSP-tTG-77" value="" style="rounded=0;whiteSpace=wrap;html=1;fillColor=#e5dc7b;" vertex="1" parent="1">
          <mxGeometry x="960" y="370" width="10" height="20" as="geometry" />
        </mxCell>
        <mxCell id="syzuLp7VhouP9JSP-tTG-78" value="" style="rounded=0;whiteSpace=wrap;html=1;fillColor=#e5dc7b;" vertex="1" parent="1">
          <mxGeometry x="970" y="370" width="10" height="20" as="geometry" />
        </mxCell>
        <mxCell id="syzuLp7VhouP9JSP-tTG-79" value="" style="rounded=0;whiteSpace=wrap;html=1;fillColor=#e5dc7b;" vertex="1" parent="1">
          <mxGeometry x="980" y="370" width="10" height="20" as="geometry" />
        </mxCell>
        <mxCell id="syzuLp7VhouP9JSP-tTG-80" value="" style="shape=or;whiteSpace=wrap;html=1;direction=north;" vertex="1" parent="1">
          <mxGeometry x="530" y="360" width="20" height="30" as="geometry" />
        </mxCell>
        <mxCell id="syzuLp7VhouP9JSP-tTG-81" value="" style="rounded=0;whiteSpace=wrap;html=1;fillColor=#e5dc7b;" vertex="1" parent="1">
          <mxGeometry x="570" y="370" width="10" height="20" as="geometry" />
        </mxCell>
        <mxCell id="syzuLp7VhouP9JSP-tTG-82" value="" style="rounded=0;whiteSpace=wrap;html=1;fillColor=#e5dc7b;" vertex="1" parent="1">
          <mxGeometry x="580" y="370" width="10" height="20" as="geometry" />
        </mxCell>
        <mxCell id="syzuLp7VhouP9JSP-tTG-83" value="" style="rounded=0;whiteSpace=wrap;html=1;fillColor=#e5dc7b;" vertex="1" parent="1">
          <mxGeometry x="590" y="370" width="10" height="20" as="geometry" />
        </mxCell>
        <mxCell id="syzuLp7VhouP9JSP-tTG-84" value="" style="rounded=0;whiteSpace=wrap;html=1;fillColor=#e5dc7b;" vertex="1" parent="1">
          <mxGeometry x="430" y="370" width="10" height="20" as="geometry" />
        </mxCell>
        <mxCell id="syzuLp7VhouP9JSP-tTG-85" value="" style="rounded=0;whiteSpace=wrap;html=1;fillColor=#e5dc7b;" vertex="1" parent="1">
          <mxGeometry x="440" y="370" width="10" height="20" as="geometry" />
        </mxCell>
        <mxCell id="syzuLp7VhouP9JSP-tTG-86" value="&lt;font style=&quot;font-size: 14px;&quot; color=&quot;#ababab&quot;&gt;&lt;b&gt;RCD&lt;/b&gt;&lt;/font&gt;" style="rounded=0;whiteSpace=wrap;html=1;strokeColor=#454744;fillColor=#464646;direction=south;" vertex="1" parent="1">
          <mxGeometry x="480" y="230" width="80" height="60" as="geometry" />
        </mxCell>
        <mxCell id="syzuLp7VhouP9JSP-tTG-87" value="" style="rounded=0;whiteSpace=wrap;html=1;fillColor=#e5dc7b;" vertex="1" parent="1">
          <mxGeometry x="450" y="370" width="10" height="20" as="geometry" />
        </mxCell>
        <mxCell id="syzuLp7VhouP9JSP-tTG-88" value="" style="rounded=0;whiteSpace=wrap;html=1;fillColor=#e5dc7b;" vertex="1" parent="1">
          <mxGeometry x="460" y="370" width="10" height="20" as="geometry" />
        </mxCell>
        <mxCell id="syzuLp7VhouP9JSP-tTG-89" value="" style="rounded=0;whiteSpace=wrap;html=1;fillColor=#e5dc7b;" vertex="1" parent="1">
          <mxGeometry x="470" y="370" width="10" height="20" as="geometry" />
        </mxCell>
        <mxCell id="syzuLp7VhouP9JSP-tTG-90" value="" style="rounded=0;whiteSpace=wrap;html=1;fillColor=#e5dc7b;" vertex="1" parent="1">
          <mxGeometry x="480" y="370" width="10" height="20" as="geometry" />
        </mxCell>
        <mxCell id="syzuLp7VhouP9JSP-tTG-91" value="" style="rounded=0;whiteSpace=wrap;html=1;fillColor=#e5dc7b;" vertex="1" parent="1">
          <mxGeometry x="490" y="370" width="10" height="20" as="geometry" />
        </mxCell>
        <mxCell id="syzuLp7VhouP9JSP-tTG-92" value="" style="rounded=0;whiteSpace=wrap;html=1;fillColor=#e5dc7b;" vertex="1" parent="1">
          <mxGeometry x="500" y="370" width="10" height="20" as="geometry" />
        </mxCell>
        <mxCell id="syzuLp7VhouP9JSP-tTG-93" value="" style="rounded=0;whiteSpace=wrap;html=1;fillColor=#e5dc7b;" vertex="1" parent="1">
          <mxGeometry x="510" y="370" width="10" height="20" as="geometry" />
        </mxCell>
        <mxCell id="syzuLp7VhouP9JSP-tTG-94" value="&lt;font style=&quot;font-size: 14px;&quot; color=&quot;#ababab&quot;&gt;&lt;b&gt;MEMORY CONTROLLER&lt;/b&gt;&lt;/font&gt;" style="rounded=0;whiteSpace=wrap;html=1;strokeColor=#454744;fillColor=#464646;direction=south;" vertex="1" parent="1">
          <mxGeometry x="455" y="500" width="130" height="100" as="geometry" />
        </mxCell>
        <mxCell id="syzuLp7VhouP9JSP-tTG-95" value="" style="endArrow=classic;html=1;rounded=0;exitX=0;exitY=0.5;exitDx=0;exitDy=0;strokeWidth=4;fillColor=#ffe6cc;strokeColor=#d79b00;" edge="1" parent="1">
          <mxGeometry width="50" height="50" relative="1" as="geometry">
            <mxPoint x="494.5" y="500" as="sourcePoint" />
            <mxPoint x="494.5" y="290" as="targetPoint" />
          </mxGeometry>
        </mxCell>
        <mxCell id="syzuLp7VhouP9JSP-tTG-96" value="" style="endArrow=classic;html=1;rounded=0;exitX=0;exitY=0.5;exitDx=0;exitDy=0;strokeWidth=4;fillColor=#f8cecc;strokeColor=#b85450;" edge="1" parent="1">
          <mxGeometry width="50" height="50" relative="1" as="geometry">
            <mxPoint x="519.5" y="500" as="sourcePoint" />
            <mxPoint x="519.5" y="290" as="targetPoint" />
          </mxGeometry>
        </mxCell>
        <mxCell id="syzuLp7VhouP9JSP-tTG-97" value="" style="endArrow=none;html=1;rounded=0;exitX=0;exitY=0.5;exitDx=0;exitDy=0;strokeWidth=4;fillColor=#dae8fc;strokeColor=#6c8ebf;startArrow=classic;startFill=1;endFill=0;" edge="1" parent="1">
          <mxGeometry width="50" height="50" relative="1" as="geometry">
            <mxPoint x="549" y="500" as="sourcePoint" />
            <mxPoint x="549" y="290" as="targetPoint" />
          </mxGeometry>
        </mxCell>
        <mxCell id="syzuLp7VhouP9JSP-tTG-110" value="&lt;font style=&quot;font-size: 14px;&quot; color=&quot;#ababab&quot;&gt;DQ&lt;/font&gt;&lt;div style=&quot;font-size: 14px;&quot;&gt;&lt;font color=&quot;#ababab&quot;&gt;x4&lt;/font&gt;&lt;/div&gt;" style="rounded=0;whiteSpace=wrap;html=1;strokeColor=#454744;fillColor=#464646;" vertex="1" parent="1">
          <mxGeometry x="60" y="270" width="60" height="80" as="geometry" />
        </mxCell>
        <mxCell id="syzuLp7VhouP9JSP-tTG-111" value="&lt;font style=&quot;font-size: 14px;&quot; color=&quot;#ababab&quot;&gt;DQ&lt;/font&gt;&lt;div style=&quot;font-size: 14px;&quot;&gt;&lt;font color=&quot;#ababab&quot;&gt;x4&lt;/font&gt;&lt;/div&gt;" style="rounded=0;whiteSpace=wrap;html=1;strokeColor=#454744;fillColor=#464646;" vertex="1" parent="1">
          <mxGeometry x="140" y="270" width="60" height="80" as="geometry" />
        </mxCell>
        <mxCell id="syzuLp7VhouP9JSP-tTG-112" value="&lt;font style=&quot;font-size: 14px;&quot; color=&quot;#ababab&quot;&gt;DQ&lt;/font&gt;&lt;div style=&quot;font-size: 14px;&quot;&gt;&lt;font color=&quot;#ababab&quot;&gt;x4&lt;/font&gt;&lt;/div&gt;" style="rounded=0;whiteSpace=wrap;html=1;strokeColor=#454744;fillColor=#464646;" vertex="1" parent="1">
          <mxGeometry x="220" y="270" width="60" height="80" as="geometry" />
        </mxCell>
        <mxCell id="syzuLp7VhouP9JSP-tTG-113" value="&lt;font style=&quot;font-size: 14px;&quot; color=&quot;#ababab&quot;&gt;DQ&lt;/font&gt;&lt;div style=&quot;font-size: 14px;&quot;&gt;&lt;font color=&quot;#ababab&quot;&gt;x4&lt;/font&gt;&lt;/div&gt;" style="rounded=0;whiteSpace=wrap;html=1;strokeColor=#454744;fillColor=#464646;" vertex="1" parent="1">
          <mxGeometry x="300" y="270" width="60" height="80" as="geometry" />
        </mxCell>
        <mxCell id="syzuLp7VhouP9JSP-tTG-114" value="&lt;font style=&quot;font-size: 14px;&quot; color=&quot;#ababab&quot;&gt;ECC&lt;/font&gt;&lt;div style=&quot;font-size: 14px;&quot;&gt;&lt;font color=&quot;#ababab&quot;&gt;x4&lt;/font&gt;&lt;/div&gt;" style="rounded=0;whiteSpace=wrap;html=1;strokeColor=#454744;fillColor=#464646;" vertex="1" parent="1">
          <mxGeometry x="380" y="270" width="60" height="80" as="geometry" />
        </mxCell>
        <mxCell id="syzuLp7VhouP9JSP-tTG-115" value="&lt;font style=&quot;font-size: 14px;&quot; color=&quot;#ababab&quot;&gt;ECC&lt;/font&gt;&lt;div style=&quot;font-size: 14px;&quot;&gt;&lt;font color=&quot;#ababab&quot;&gt;x4&lt;/font&gt;&lt;/div&gt;" style="rounded=0;whiteSpace=wrap;html=1;strokeColor=#454744;fillColor=#464646;" vertex="1" parent="1">
          <mxGeometry x="600" y="270" width="60" height="80" as="geometry" />
        </mxCell>
        <mxCell id="syzuLp7VhouP9JSP-tTG-116" value="&lt;font style=&quot;font-size: 14px;&quot; color=&quot;#ababab&quot;&gt;DQ&lt;/font&gt;&lt;div style=&quot;font-size: 14px;&quot;&gt;&lt;font color=&quot;#ababab&quot;&gt;x4&lt;/font&gt;&lt;/div&gt;" style="rounded=0;whiteSpace=wrap;html=1;strokeColor=#454744;fillColor=#464646;" vertex="1" parent="1">
          <mxGeometry x="680" y="270" width="60" height="80" as="geometry" />
        </mxCell>
        <mxCell id="syzuLp7VhouP9JSP-tTG-117" value="&lt;font style=&quot;font-size: 14px;&quot; color=&quot;#ababab&quot;&gt;DQ&lt;/font&gt;&lt;div style=&quot;font-size: 14px;&quot;&gt;&lt;font color=&quot;#ababab&quot;&gt;x4&lt;/font&gt;&lt;/div&gt;" style="rounded=0;whiteSpace=wrap;html=1;strokeColor=#454744;fillColor=#464646;" vertex="1" parent="1">
          <mxGeometry x="760" y="270" width="60" height="80" as="geometry" />
        </mxCell>
        <mxCell id="syzuLp7VhouP9JSP-tTG-118" value="&lt;font style=&quot;font-size: 14px;&quot; color=&quot;#ababab&quot;&gt;DQ&lt;/font&gt;&lt;div style=&quot;font-size: 14px;&quot;&gt;&lt;font color=&quot;#ababab&quot;&gt;x4&lt;/font&gt;&lt;/div&gt;" style="rounded=0;whiteSpace=wrap;html=1;strokeColor=#454744;fillColor=#464646;" vertex="1" parent="1">
          <mxGeometry x="840" y="270" width="60" height="80" as="geometry" />
        </mxCell>
        <mxCell id="syzuLp7VhouP9JSP-tTG-119" value="&lt;font style=&quot;font-size: 14px;&quot; color=&quot;#ababab&quot;&gt;DQ&lt;/font&gt;&lt;div style=&quot;font-size: 14px;&quot;&gt;&lt;font color=&quot;#ababab&quot;&gt;x4&lt;/font&gt;&lt;/div&gt;" style="rounded=0;whiteSpace=wrap;html=1;strokeColor=#454744;fillColor=#464646;" vertex="1" parent="1">
          <mxGeometry x="920" y="270" width="60" height="80" as="geometry" />
        </mxCell>
        <mxCell id="syzuLp7VhouP9JSP-tTG-120" value="&lt;font color=&quot;#ababab&quot; style=&quot;font-size: 14px;&quot;&gt;DQ&lt;/font&gt;&lt;div style=&quot;font-size: 14px;&quot;&gt;&lt;font color=&quot;#ababab&quot; style=&quot;font-size: 14px;&quot;&gt;x4&lt;/font&gt;&lt;/div&gt;" style="rounded=0;whiteSpace=wrap;html=1;strokeColor=#454744;fillColor=#464646;" vertex="1" parent="1">
          <mxGeometry x="60" y="178" width="60" height="80" as="geometry" />
        </mxCell>
        <mxCell id="syzuLp7VhouP9JSP-tTG-121" value="&lt;font style=&quot;font-size: 14px;&quot; color=&quot;#ababab&quot;&gt;DQ&lt;/font&gt;&lt;div style=&quot;font-size: 14px;&quot;&gt;&lt;font color=&quot;#ababab&quot;&gt;x4&lt;/font&gt;&lt;/div&gt;" style="rounded=0;whiteSpace=wrap;html=1;strokeColor=#454744;fillColor=#464646;" vertex="1" parent="1">
          <mxGeometry x="140" y="178" width="60" height="80" as="geometry" />
        </mxCell>
        <mxCell id="syzuLp7VhouP9JSP-tTG-122" value="&lt;font style=&quot;font-size: 14px;&quot; color=&quot;#ababab&quot;&gt;DQ&lt;/font&gt;&lt;div style=&quot;font-size: 14px;&quot;&gt;&lt;font color=&quot;#ababab&quot;&gt;x4&lt;/font&gt;&lt;/div&gt;" style="rounded=0;whiteSpace=wrap;html=1;strokeColor=#454744;fillColor=#464646;" vertex="1" parent="1">
          <mxGeometry x="220" y="178" width="60" height="80" as="geometry" />
        </mxCell>
        <mxCell id="syzuLp7VhouP9JSP-tTG-123" value="&lt;font style=&quot;font-size: 14px;&quot; color=&quot;#ababab&quot;&gt;DQ&lt;/font&gt;&lt;div style=&quot;font-size: 14px;&quot;&gt;&lt;font color=&quot;#ababab&quot;&gt;x4&lt;/font&gt;&lt;/div&gt;" style="rounded=0;whiteSpace=wrap;html=1;strokeColor=#454744;fillColor=#464646;" vertex="1" parent="1">
          <mxGeometry x="300" y="178" width="60" height="80" as="geometry" />
        </mxCell>
        <mxCell id="syzuLp7VhouP9JSP-tTG-124" value="&lt;font style=&quot;font-size: 14px;&quot; color=&quot;#ababab&quot;&gt;ECC&lt;/font&gt;&lt;div style=&quot;font-size: 14px;&quot;&gt;&lt;font color=&quot;#ababab&quot;&gt;x4&lt;/font&gt;&lt;/div&gt;" style="rounded=0;whiteSpace=wrap;html=1;strokeColor=#454744;fillColor=#464646;" vertex="1" parent="1">
          <mxGeometry x="380" y="178" width="60" height="80" as="geometry" />
        </mxCell>
        <mxCell id="syzuLp7VhouP9JSP-tTG-125" value="&lt;font style=&quot;font-size: 14px;&quot; color=&quot;#ababab&quot;&gt;ECC&lt;/font&gt;&lt;div style=&quot;font-size: 14px;&quot;&gt;&lt;font color=&quot;#ababab&quot;&gt;x4&lt;/font&gt;&lt;/div&gt;" style="rounded=0;whiteSpace=wrap;html=1;strokeColor=#454744;fillColor=#464646;" vertex="1" parent="1">
          <mxGeometry x="600" y="178" width="60" height="80" as="geometry" />
        </mxCell>
        <mxCell id="syzuLp7VhouP9JSP-tTG-126" value="&lt;font style=&quot;font-size: 14px;&quot; color=&quot;#ababab&quot;&gt;DQ&lt;/font&gt;&lt;div style=&quot;font-size: 14px;&quot;&gt;&lt;font color=&quot;#ababab&quot;&gt;x4&lt;/font&gt;&lt;/div&gt;" style="rounded=0;whiteSpace=wrap;html=1;strokeColor=#454744;fillColor=#464646;" vertex="1" parent="1">
          <mxGeometry x="680" y="178" width="60" height="80" as="geometry" />
        </mxCell>
        <mxCell id="syzuLp7VhouP9JSP-tTG-127" value="&lt;font style=&quot;font-size: 14px;&quot; color=&quot;#ababab&quot;&gt;DQ&lt;/font&gt;&lt;div style=&quot;font-size: 14px;&quot;&gt;&lt;font color=&quot;#ababab&quot;&gt;x4&lt;/font&gt;&lt;/div&gt;" style="rounded=0;whiteSpace=wrap;html=1;strokeColor=#454744;fillColor=#464646;" vertex="1" parent="1">
          <mxGeometry x="760" y="178" width="60" height="80" as="geometry" />
        </mxCell>
        <mxCell id="syzuLp7VhouP9JSP-tTG-128" value="&lt;font style=&quot;font-size: 14px;&quot; color=&quot;#ababab&quot;&gt;DQ&lt;/font&gt;&lt;div style=&quot;font-size: 14px;&quot;&gt;&lt;font color=&quot;#ababab&quot;&gt;x4&lt;/font&gt;&lt;/div&gt;" style="rounded=0;whiteSpace=wrap;html=1;strokeColor=#454744;fillColor=#464646;" vertex="1" parent="1">
          <mxGeometry x="840" y="178" width="60" height="80" as="geometry" />
        </mxCell>
        <mxCell id="syzuLp7VhouP9JSP-tTG-129" value="&lt;font style=&quot;font-size: 14px;&quot; color=&quot;#ababab&quot;&gt;DQ&lt;/font&gt;&lt;div style=&quot;font-size: 14px;&quot;&gt;&lt;font color=&quot;#ababab&quot;&gt;x4&lt;/font&gt;&lt;/div&gt;" style="rounded=0;whiteSpace=wrap;html=1;strokeColor=#454744;fillColor=#464646;" vertex="1" parent="1">
          <mxGeometry x="920" y="178" width="60" height="80" as="geometry" />
        </mxCell>
        <mxCell id="syzuLp7VhouP9JSP-tTG-156" value="CK" style="text;html=1;align=center;verticalAlign=middle;whiteSpace=wrap;rounded=0;fillColor=#ffe6cc;strokeColor=#d79b00;" vertex="1" parent="1">
          <mxGeometry x="435" y="410" width="35" height="20" as="geometry" />
        </mxCell>
        <mxCell id="syzuLp7VhouP9JSP-tTG-157" value="DCS" style="text;html=1;align=center;verticalAlign=middle;whiteSpace=wrap;rounded=0;fillColor=#f8cecc;strokeColor=#b85450;" vertex="1" parent="1">
          <mxGeometry x="435" y="440" width="35" height="20" as="geometry" />
        </mxCell>
        <mxCell id="syzuLp7VhouP9JSP-tTG-158" value="ALERT_n" style="text;html=1;align=center;verticalAlign=middle;whiteSpace=wrap;rounded=0;fillColor=#dae8fc;strokeColor=#6c8ebf;" vertex="1" parent="1">
          <mxGeometry x="555" y="430" width="65" height="20" as="geometry" />
        </mxCell>
      </root>
    </mxGraphModel>
  </diagram>
</mxfile>
